<mxfile host="app.diagrams.net" modified="2022-01-05T10:18:02.067Z" agent="5.0 (X11; Linux x86_64) AppleWebKit/537.36 (KHTML, like Gecko) Chrome/96.0.4664.110 Safari/537.36" etag="8ffOnghBEU_q3M78z7Em" version="16.2.1" type="github">
  <diagram id="C5RBs43oDa-KdzZeNtuy" name="Page-1">
    <mxGraphModel dx="2300" dy="757" grid="1" gridSize="10" guides="1" tooltips="1" connect="1" arrows="1" fold="1" page="1" pageScale="1" pageWidth="827" pageHeight="1169" math="0" shadow="0">
      <root>
        <mxCell id="WIyWlLk6GJQsqaUBKTNV-0" />
        <mxCell id="WIyWlLk6GJQsqaUBKTNV-1" parent="WIyWlLk6GJQsqaUBKTNV-0" />
        <mxCell id="lKY-BgDjoh4vxxJiajSs-1" style="edgeStyle=orthogonalEdgeStyle;rounded=0;orthogonalLoop=1;jettySize=auto;html=1;" edge="1" parent="WIyWlLk6GJQsqaUBKTNV-1" source="WIyWlLk6GJQsqaUBKTNV-3" target="lKY-BgDjoh4vxxJiajSs-0">
          <mxGeometry relative="1" as="geometry" />
        </mxCell>
        <mxCell id="WIyWlLk6GJQsqaUBKTNV-3" value="APP启动" style="rounded=1;whiteSpace=wrap;html=1;fontSize=12;glass=0;strokeWidth=1;shadow=0;fillColor=#ffe6cc;strokeColor=#d79b00;" parent="WIyWlLk6GJQsqaUBKTNV-1" vertex="1">
          <mxGeometry x="340" y="30" width="120" height="40" as="geometry" />
        </mxCell>
        <mxCell id="lKY-BgDjoh4vxxJiajSs-4" style="edgeStyle=orthogonalEdgeStyle;rounded=0;orthogonalLoop=1;jettySize=auto;html=1;exitX=0.5;exitY=1;exitDx=0;exitDy=0;" edge="1" parent="WIyWlLk6GJQsqaUBKTNV-1" source="lKY-BgDjoh4vxxJiajSs-0" target="lKY-BgDjoh4vxxJiajSs-3">
          <mxGeometry relative="1" as="geometry" />
        </mxCell>
        <mxCell id="lKY-BgDjoh4vxxJiajSs-0" value="实例化arouter" style="rounded=1;whiteSpace=wrap;html=1;fontSize=12;glass=0;strokeWidth=1;shadow=0;fillColor=#e1d5e7;strokeColor=#9673a6;" vertex="1" parent="WIyWlLk6GJQsqaUBKTNV-1">
          <mxGeometry x="340" y="140" width="120" height="40" as="geometry" />
        </mxCell>
        <mxCell id="lKY-BgDjoh4vxxJiajSs-6" value="" style="edgeStyle=orthogonalEdgeStyle;rounded=0;orthogonalLoop=1;jettySize=auto;html=1;" edge="1" parent="WIyWlLk6GJQsqaUBKTNV-1" source="lKY-BgDjoh4vxxJiajSs-3" target="lKY-BgDjoh4vxxJiajSs-5">
          <mxGeometry relative="1" as="geometry" />
        </mxCell>
        <mxCell id="lKY-BgDjoh4vxxJiajSs-3" value="扫描所有@&lt;span style=&quot;color: rgb(187 , 181 , 41) ; background-color: rgb(43 , 43 , 43) ; font-size: 12.8pt&quot;&gt;@Route&lt;/span&gt;&lt;span style=&quot;font-family: &amp;#34;helvetica&amp;#34;&quot;&gt;注解的类&lt;/span&gt;" style="rounded=1;whiteSpace=wrap;html=1;fillColor=#dae8fc;strokeColor=#6c8ebf;" vertex="1" parent="WIyWlLk6GJQsqaUBKTNV-1">
          <mxGeometry x="340" y="270" width="120" height="60" as="geometry" />
        </mxCell>
        <mxCell id="lKY-BgDjoh4vxxJiajSs-8" value="" style="edgeStyle=orthogonalEdgeStyle;rounded=0;orthogonalLoop=1;jettySize=auto;html=1;" edge="1" parent="WIyWlLk6GJQsqaUBKTNV-1" source="lKY-BgDjoh4vxxJiajSs-5" target="lKY-BgDjoh4vxxJiajSs-7">
          <mxGeometry relative="1" as="geometry" />
        </mxCell>
        <mxCell id="lKY-BgDjoh4vxxJiajSs-5" value="把扫描到的所有属性保存到列表中&lt;br&gt;map&lt;br&gt;属性包含：全类名，path地址，name" style="whiteSpace=wrap;html=1;rounded=1;fillColor=#ffe6cc;strokeColor=#d79b00;" vertex="1" parent="WIyWlLk6GJQsqaUBKTNV-1">
          <mxGeometry x="295" y="410" width="210" height="80" as="geometry" />
        </mxCell>
        <mxCell id="lKY-BgDjoh4vxxJiajSs-7" value="" style="whiteSpace=wrap;html=1;rounded=1;" vertex="1" parent="WIyWlLk6GJQsqaUBKTNV-1">
          <mxGeometry x="280" y="560" width="240" height="90" as="geometry" />
        </mxCell>
        <mxCell id="lKY-BgDjoh4vxxJiajSs-12" value="" style="edgeStyle=orthogonalEdgeStyle;rounded=0;orthogonalLoop=1;jettySize=auto;html=1;fontSize=13;fontColor=#000000;" edge="1" parent="WIyWlLk6GJQsqaUBKTNV-1" source="lKY-BgDjoh4vxxJiajSs-9" target="lKY-BgDjoh4vxxJiajSs-11">
          <mxGeometry relative="1" as="geometry" />
        </mxCell>
        <mxCell id="lKY-BgDjoh4vxxJiajSs-9" value="点击按钮&lt;br style=&quot;font-size: 13px&quot;&gt;使用arouter跳转&lt;br style=&quot;font-size: 13px&quot;&gt;&lt;pre style=&quot;font-family: &amp;#34;jetbrains mono&amp;#34; , monospace ; font-size: 13px&quot;&gt;ARouter.getInstance().build(path)&lt;/pre&gt;" style="rounded=1;whiteSpace=wrap;html=1;fontSize=13;fillColor=#60a917;fontColor=#ffffff;strokeColor=#2D7600;" vertex="1" parent="WIyWlLk6GJQsqaUBKTNV-1">
          <mxGeometry x="-320" y="80" width="300" height="70" as="geometry" />
        </mxCell>
        <mxCell id="lKY-BgDjoh4vxxJiajSs-14" style="edgeStyle=orthogonalEdgeStyle;rounded=0;orthogonalLoop=1;jettySize=auto;html=1;exitX=1;exitY=0.5;exitDx=0;exitDy=0;entryX=0;entryY=0.5;entryDx=0;entryDy=0;fontSize=13;fontColor=#000000;" edge="1" parent="WIyWlLk6GJQsqaUBKTNV-1" source="lKY-BgDjoh4vxxJiajSs-11" target="lKY-BgDjoh4vxxJiajSs-5">
          <mxGeometry relative="1" as="geometry" />
        </mxCell>
        <mxCell id="lKY-BgDjoh4vxxJiajSs-16" value="" style="edgeStyle=orthogonalEdgeStyle;rounded=0;orthogonalLoop=1;jettySize=auto;html=1;fontSize=13;fontColor=#000000;entryX=0.5;entryY=0;entryDx=0;entryDy=0;" edge="1" parent="WIyWlLk6GJQsqaUBKTNV-1" source="lKY-BgDjoh4vxxJiajSs-11">
          <mxGeometry relative="1" as="geometry">
            <mxPoint x="-170" y="585" as="targetPoint" />
          </mxGeometry>
        </mxCell>
        <mxCell id="lKY-BgDjoh4vxxJiajSs-11" value="arouter通过传递进来的&lt;span style=&quot;font-family: &amp;#34;jetbrains mono&amp;#34; , monospace&quot;&gt;path，到map中查找以前扫描到的对象&lt;/span&gt;" style="whiteSpace=wrap;html=1;fontSize=13;fillColor=#60a917;strokeColor=#2D7600;fontColor=#ffffff;rounded=1;" vertex="1" parent="WIyWlLk6GJQsqaUBKTNV-1">
          <mxGeometry x="-280" y="320" width="220" height="60" as="geometry" />
        </mxCell>
        <mxCell id="lKY-BgDjoh4vxxJiajSs-21" value="" style="edgeStyle=orthogonalEdgeStyle;rounded=0;orthogonalLoop=1;jettySize=auto;html=1;fontSize=13;fontColor=#000000;" edge="1" parent="WIyWlLk6GJQsqaUBKTNV-1" target="lKY-BgDjoh4vxxJiajSs-20">
          <mxGeometry relative="1" as="geometry">
            <mxPoint x="-280" y="350" as="sourcePoint" />
          </mxGeometry>
        </mxCell>
        <mxCell id="lKY-BgDjoh4vxxJiajSs-28" style="edgeStyle=orthogonalEdgeStyle;rounded=0;orthogonalLoop=1;jettySize=auto;html=1;exitX=0.5;exitY=1;exitDx=0;exitDy=0;fontSize=13;fontColor=#000000;" edge="1" parent="WIyWlLk6GJQsqaUBKTNV-1" source="lKY-BgDjoh4vxxJiajSs-18">
          <mxGeometry relative="1" as="geometry">
            <mxPoint x="-170" y="750" as="targetPoint" />
          </mxGeometry>
        </mxCell>
        <mxCell id="lKY-BgDjoh4vxxJiajSs-18" value="判断获取的对象是否是activity" style="whiteSpace=wrap;html=1;fontSize=13;fontColor=#000000;labelBackgroundColor=none;" vertex="1" parent="WIyWlLk6GJQsqaUBKTNV-1">
          <mxGeometry x="-230" y="585" width="120" height="60" as="geometry" />
        </mxCell>
        <mxCell id="lKY-BgDjoh4vxxJiajSs-20" value="没有找到" style="whiteSpace=wrap;html=1;fontSize=13;fontColor=#000000;labelBackgroundColor=none;" vertex="1" parent="WIyWlLk6GJQsqaUBKTNV-1">
          <mxGeometry x="-520" y="320" width="120" height="60" as="geometry" />
        </mxCell>
        <mxCell id="lKY-BgDjoh4vxxJiajSs-23" value="no" style="text;html=1;align=center;verticalAlign=middle;resizable=0;points=[];autosize=1;strokeColor=none;fillColor=none;fontSize=13;fontColor=#000000;" vertex="1" parent="WIyWlLk6GJQsqaUBKTNV-1">
          <mxGeometry x="-345" y="325" width="30" height="20" as="geometry" />
        </mxCell>
        <mxCell id="lKY-BgDjoh4vxxJiajSs-24" value="yes" style="text;html=1;align=center;verticalAlign=middle;resizable=0;points=[];autosize=1;strokeColor=none;fillColor=none;fontSize=13;fontColor=#000000;" vertex="1" parent="WIyWlLk6GJQsqaUBKTNV-1">
          <mxGeometry x="-170" y="470" width="40" height="20" as="geometry" />
        </mxCell>
        <mxCell id="lKY-BgDjoh4vxxJiajSs-29" value="直接通过全类名进行intent跳转" style="rounded=1;whiteSpace=wrap;html=1;labelBackgroundColor=none;fontSize=13;fontColor=#000000;" vertex="1" parent="WIyWlLk6GJQsqaUBKTNV-1">
          <mxGeometry x="-230" y="750" width="120" height="60" as="geometry" />
        </mxCell>
        <mxCell id="lKY-BgDjoh4vxxJiajSs-30" value="yes" style="text;html=1;align=center;verticalAlign=middle;resizable=0;points=[];autosize=1;strokeColor=none;fillColor=none;fontSize=13;fontColor=#000000;" vertex="1" parent="WIyWlLk6GJQsqaUBKTNV-1">
          <mxGeometry x="-160" y="680" width="40" height="20" as="geometry" />
        </mxCell>
      </root>
    </mxGraphModel>
  </diagram>
</mxfile>
